<svg id="Ebene_1" data-name="Ebene 1" xmlns="http://www.w3.org/2000/svg" xmlns:xlink="http://www.w3.org/1999/xlink" viewBox="0 0 1429.51 679.9"><defs><style>.cls-1{fill:#3fdabc;}.cls-2{fill:url(#Unbenannter_Verlauf_7);}.cls-3{fill:#fff;}.cls-4{font-size:233px;font-family:BellaFashionPersonalUse, Bella Fashion Personal Use;}.cls-5{font-size:113px;font-family:Roboto-Medium, Roboto;letter-spacing:0.34em;}.cls-6{letter-spacing:0.32em;}</style><linearGradient id="Unbenannter_Verlauf_7" x1="433.12" y1="340.55" x2="872.76" y2="690.29" gradientUnits="userSpaceOnUse"><stop offset="0.09" stop-color="#48b7e9"/><stop offset="1" stop-color="aqua"/></linearGradient></defs><title>FiM_logo_font</title><path class="cls-1" d="M941.74,480.65,940.17,479a17.45,17.45,0,0,0-12.7-5.48H916.33a21.43,21.43,0,0,1-2.65-.17l-36.75-4.69a22.68,22.68,0,0,1-14.65-8.09L847,442a15,15,0,0,1-1-17.67l22.9-35.47a16.11,16.11,0,0,0,2.52-7.26l2.69-29a9.22,9.22,0,0,0-9.18-10.08H827.05a12,12,0,0,1-4-.68l-37.32-13a16.63,16.63,0,0,1-6.49-4.17l-40.5-42.12a9.31,9.31,0,0,1,.58-13.44l38-36.06A302,302,0,0,1,941.74,480.65Z" transform="translate(-339.49 -200.49)"/><path class="cls-1" d="M900.83,655a305,305,0,0,1-21.51,31.67,301.4,301.4,0,0,1-287.4,112.85l19.79-46.18,0-.08,3.76-8.77-4.21-8.65-26.26-54,0,0a21.2,21.2,0,0,1,1.72-21.39l.15-.21L614,622.58a25,25,0,0,1,17.65-10.27l38.45-4.12a20.88,20.88,0,0,1,12,2.32l.1,0L741.5,642.5l73.91,19.9h.05l4,1.09,4.21-.44Z" transform="translate(-339.49 -200.49)"/><path class="cls-2" d="M939.73,543.1A299.47,299.47,0,0,1,900.83,655l-77.12,8-4.21.44-4-1.09h-.05L741.5,642.5l-59.31-31.94-.1,0a20.88,20.88,0,0,0-12-2.32l-38.45,4.12A25,25,0,0,0,614,622.58l-27.09,37.65-.15.21A21.2,21.2,0,0,0,585,681.83l0,0,26.26,54,4.21,8.65-3.76,8.77,0,.08-19.79,46.18a302.3,302.3,0,0,1-206-136.7l24.87-10.13.19-.08A16.45,16.45,0,0,0,420.63,634l-5.08-23.91-2.05-9.62,6.72-6.93.12-.13,20.06-20.68,5.1-5.26,7.23-1.23,20.86-3.57a21.79,21.79,0,0,0,17-14.47l.06-.16,5.63-17h0A125.72,125.72,0,0,0,596,507l46.62,36.13a31,31,0,0,0,39.83-1.53,31.9,31.9,0,0,0,6.6-8.53,31,31,0,0,0-8.45-39l-46.42-36a125.66,125.66,0,0,0-22.08-134.94A164,164,0,0,1,597.7,429.86l-43.39-33.63A302.87,302.87,0,0,1,526.65,223q6.72-2.76,13.55-5.17a302.69,302.69,0,0,1,186-5.12A298.8,298.8,0,0,1,777.32,233l-38,36.06a9.31,9.31,0,0,0-.58,13.44l40.5,42.12a16.63,16.63,0,0,0,6.49,4.17l37.32,13a12,12,0,0,0,4,.68h37.83a9.22,9.22,0,0,1,9.18,10.08l-2.69,29a16.11,16.11,0,0,1-2.52,7.26L846,424.29A15,15,0,0,0,847,442l15.31,18.59a22.68,22.68,0,0,0,14.65,8.09l36.75,4.69a21.43,21.43,0,0,0,2.65.17h11.14a17.45,17.45,0,0,1,12.7,5.48l1.57,1.67A302.18,302.18,0,0,1,939.73,543.1Z" transform="translate(-339.49 -200.49)"/><path class="cls-1" d="M502,511.68a163.89,163.89,0,0,1-40,7.66,124.58,124.58,0,0,0,34.28,11.71h0l-5.63,17-.06.16a21.79,21.79,0,0,1-17,14.47l-20.86,3.57-7.23,1.23-5.1,5.26-20.06,20.68-.12.13-6.72,6.93,2.05,9.62L420.63,634a16.45,16.45,0,0,1-9.69,18.59l-.19.08-24.87,10.13a302.4,302.4,0,0,1-45.33-186.26q.63-7.56,1.64-15.09a302.76,302.76,0,0,1,174.14-16.24l25.09,19.44,18.3,14.18A162.72,162.72,0,0,1,502,511.68Z" transform="translate(-339.49 -200.49)"/><path class="cls-3" d="M689.08,533.07a31.9,31.9,0,0,1-6.6,8.53,31,31,0,0,1-39.83,1.53L596,507A125.59,125.59,0,0,1,462,519.34a164.18,164.18,0,0,0,97.75-40.48l-18.3-14.18-25.09-19.44a302.76,302.76,0,0,0-174.14,16.24A301.82,301.82,0,0,1,526.65,223a302.87,302.87,0,0,0,27.66,173.25l43.39,33.63a164,164,0,0,0,14.43-106.65,125.66,125.66,0,0,1,22.08,134.94l46.42,36A31,31,0,0,1,689.08,533.07Z" transform="translate(-339.49 -200.49)"/><text class="cls-4" transform="translate(662.77 421.51)">Fim</text><text class="cls-5" transform="translate(637.6 581.98)">on <tspan class="cls-6" x="269.56" y="0">t</tspan><tspan x="343.56" y="0">our</tspan></text></svg>